<?xml version="1.0" encoding="utf-8"?>
<!-- Generator: Adobe Illustrator 27.4.0, SVG Export Plug-In . SVG Version: 6.00 Build 0)  -->
<svg version="1.1" id="Capa_1" xmlns="http://www.w3.org/2000/svg" xmlns:xlink="http://www.w3.org/1999/xlink" x="0px" y="0px"
	 viewBox="0 0 24 24" style="enable-background:new 0 0 24 24;" xml:space="preserve">
<style type="text/css">
	.st0{fill:#FFFFFF;}
</style>
<path class="st0" d="M22.7,0H1.3C0.6,0,0,0.6,0,1.3v21.4C0,23.4,0.6,24,1.3,24h21.4c0.7,0,1.3-0.6,1.3-1.3V1.3C24,0.6,23.4,0,22.7,0
	z M18.2,8.9c0.3,4.6-3.2,9.7-9.3,9.7c-1.7,0-3.5-0.5-5-1.5c1.8,0.3,3.6-0.2,4.9-1.3c-1.5,0-2.7-1-3.1-2.3c0.5,0.1,1,0.1,1.5-0.1
	c-1.5-0.3-2.6-1.8-2.6-3.3c0.5,0.2,1,0.4,1.5,0.4c-1.4-0.9-2-2.8-1-4.3c1.7,2,4.1,3.2,6.7,3.5c-0.4-2,1.1-4,3.2-4
	c0.9,0,1.8,0.3,2.4,1c0.8-0.2,1.4-0.5,2.1-0.9c-0.2,0.7-0.7,1.4-1.4,1.8c0.6-0.1,1.2-0.2,1.8-0.5C19.6,7.8,19,8.4,18.2,8.9z"/>
</svg>
